<?xml version="1.0" encoding="UTF-8"?>
<svg width="300px" height="315px" viewBox="0 0 300 315" version="1.1" xmlns="http://www.w3.org/2000/svg" xmlns:xlink="http://www.w3.org/1999/xlink">
    <!-- Generator: Sketch 41 (35326) - http://www.bohemiancoding.com/sketch -->
    <title>Group 3</title>
    <desc>Created with Sketch.</desc>
    <defs></defs>
    <g id="Welcome" stroke="none" stroke-width="1" fill="none" fill-rule="evenodd">
        <g id="Tablet-Portrait" transform="translate(-189.000000, -468.000000)">
            <g id="Group-3" transform="translate(189.000000, 468.000000)">
                <circle id="Combined-Shape" fill="#F28300" cx="150" cy="150" r="150"></circle>
                <path d="M24,276 C24,276 26.1651305,275.470866 31.186526,272.602188 C36.2079214,269.73351 35.649507,269.765529 42.4120393,265.481367 C49.1745716,261.197205 69.0200503,246.552771 70.4808403,245.456713 C71.9416303,244.360654 71.4907838,243.852863 72.8578656,242.637282 C73.5365571,242.033803 77.033628,239.632407 80.0350873,237.018549 C83.0365466,234.40469 85.6238677,231.507508 85.6238677,231.507508 C85.6238677,231.507508 90.5337255,226.83264 92.546988,224.106474 C94.5602506,221.380307 99.1542347,213.185989 99.1542347,213.185989 C99.1542347,213.185989 102.522586,208.280068 103.195607,204.765917 C103.868627,201.251767 105.492483,180.091072 105.492483,180.091072 C105.492483,180.091072 105.877261,165.782259 107.335523,159.739829 C108.793785,153.697399 114.299126,143.600014 114.299126,143.600014 C114.299126,143.600014 120.033582,130.081041 122.711594,123.254337 C125.389606,116.427634 126.79771,111.73902 126.79771,111.73902 L132.205383,95.0650518 C132.205383,95.0650518 134.12884,87.2617306 135.405402,83.3220444 C136.681963,79.3823583 140.664992,68.9572634 140.664992,68.9572634 C140.664992,68.9572634 140.87724,66.1554184 141.277296,64.9788145 C141.677353,63.8022105 141.698991,61.3461832 145.41668,61.0220768 C149.134369,60.6979703 151.959207,64.0496839 151.959207,64.0496839 C151.959207,64.0496839 154.146353,62.2415258 156.55722,62.2415258 C158.968088,62.2415258 160.237442,64.0496839 160.237442,64.0496839 C160.237442,64.0496839 161.960631,71.4763261 165.426719,84.6450394 C168.892807,97.8137528 169.260359,102.097818 171.465872,111.280857 C173.671386,120.463895 173.33139,120.317845 176.220224,129.585675 C179.109059,138.853504 180.723928,142.738235 182.886065,147.918606 C185.048202,153.098976 186.542763,153.765047 188.079603,158.000145 C189.616444,162.235243 190.571703,166.679916 190.571703,166.679916 L191.497218,176.085902 L193.475024,190.082705 L194.62506,196.656206 C194.62506,196.656206 195.073725,201.782864 195.822504,205.372441 C196.571283,208.962018 196.168048,208.30206 197.92096,212.456435 C199.673872,216.61081 200.237811,216.443791 202.216949,220.527178 C204.196086,224.610564 212.328103,230.502388 212.328103,230.502388 L230.223439,244.616654 C230.223439,244.616654 242.890337,254.897247 249.206489,259.283444 C251.973822,261.205195 257.148727,265.003914 262.223895,268.208163 C267.299062,271.412412 275,275.711352 275,275.711352 L212.328103,306.897721 L174.505291,260.667398 L166.380874,250.20285 C166.380874,250.20285 163.7756,250.463295 158.761907,244.616654 C153.748214,238.770013 150.567871,232.046949 150.567871,232.046949 L148.705991,226.671495 C148.705991,226.671495 145.985955,236.044044 144.587045,239.312148 C143.188136,242.580252 143.497862,242.619892 140.664992,245.456713 C137.832121,248.293534 133.711509,250.20285 133.711509,250.20285 C133.711509,250.20285 123.887592,258.5185 118.298151,264.130344 C112.70871,269.742187 85.6238677,314.737882 85.6238677,314.737882 L24,276 Z" id="Path-11" fill="#FFFFFF"></path>
                <path d="M152.331865,51.5567822 C152.331865,51.5567822 151.920151,72.0630851 151.279112,95.8914639 C150.946762,108.245438 150.683938,121.492375 150.253722,133.237492 C149.823506,144.982609 148.502966,152.196359 148.274176,158.809799 C148.045386,165.423239 146.951724,176.570161 146.936098,186.181839 C146.920471,195.793518 148.274176,229.538619 148.274176,229.538619 C148.274176,229.538619 150.042785,210.370543 151.260859,188.617611 C152.478933,166.864679 152.15903,165.959581 152.331865,158.809799 C152.46916,153.130235 151.283826,143.935997 151.260859,133.237492 C151.237892,122.538987 152.368696,108.79434 152.331865,96.4365654 C152.260385,72.4526687 152.331865,51.5567822 152.331865,51.5567822 Z" id="Path-13" stroke="#FC8800" fill="#FC8800"></path>
            </g>
        </g>
    </g>
</svg>